{
  "accessors": [
    {
      "bufferView": 0,
      "componentType": 5125,
      "count": 7980,
      "type": "SCALAR"
    },
    {
      "bufferView": 1,
      "componentType": 5126,
      "count": 1720,
      "max": [
        25.5520057678223,
        29.168478012085,
        1.3652902841568
      ],
      "min": [
        -25.5520057678223,
        -29.1684761047363,
        -1.36529052257538
      ],
      "type": "VEC3"
    },
    {
      "bufferView": 2,
      "componentType": 5126,
      "count": 1720,
      "type": "VEC3"
    },
    {
      "bufferView": 3,
      "componentType": 5126,
      "count": 1720,
      "type": "VEC4"
    },
    {
      "bufferView": 4,
      "componentType": 5126,
      "count": 1720,
      "type": "VEC2"
    }
  ],
  "asset": {
    "generator": "Adobe Substance 3D Painter 8.1.2",
    "version": "2.0"
  },
  "bufferViews": [
    {
      "buffer": 0,
      "byteLength": 31920,
      "target": 34963
    },
    {
      "buffer": 0,
      "byteLength": 20640,
      "byteOffset": 31920,
      "target": 34962
    },
    {
      "buffer": 0,
      "byteLength": 20640,
      "byteOffset": 52560,
      "target": 34962
    },
    {
      "buffer": 0,
      "byteLength": 27520,
      "byteOffset": 73200,
      "target": 34962
    },
    {
      "buffer": 0,
      "byteLength": 13760,
      "byteOffset": 100720,
      "target": 34962
    }
  ],
  "buffers": [
    {
      "byteLength": 114480,
      "uri": "Ax_1.bin"
    }
  ],
  "images": [
    {
      "uri": "TX_Ax_1_baseColor.png"
    },
    {
      "uri": "TX_Ax_1_occlusionRoughnessMetallic.png"
    },
    {
      "uri": "TX_Ax_1_normal.png"
    },
    {
      "uri": "TX_Ax_1_emissive.png"
    }
  ],
  "materials": [
    {
      "alphaMode": "OPAQUE",
      "emissiveFactor": [
        1.0,
        1.0,
        1.0
      ],
      "emissiveTexture": {
        "index": 3
      },
      "name": "TX_Ax_1",
      "normalTexture": {
        "index": 2
      },
      "occlusionTexture": {
        "index": 1
      },
      "pbrMetallicRoughness": {
        "baseColorTexture": {
          "index": 0
        },
        "metallicRoughnessTexture": {
          "index": 1
        }
      }
    }
  ],
  "meshes": [
    {
      "name": "Ax_1",
      "primitives": [
        {
          "attributes": {
            "NORMAL": 2,
            "POSITION": 1,
            "TANGENT": 3,
            "TEXCOORD_0": 4
          },
          "indices": 0,
          "material": 0,
          "mode": 4
        }
      ]
    }
  ],
  "nodes": [
    {
      "children": [
        1
      ],
      "name": "RootNode"
    },
    {
      "children": [
        2
      ],
      "name": "Ax_1"
    },
    {
      "mesh": 0,
      "name": "Ax_1"
    }
  ],
  "samplers": [
    {
      "magFilter": 9729,
      "minFilter": 9985,
      "wrapS": 10497,
      "wrapT": 10497
    }
  ],
  "scene": 0,
  "scenes": [
    {
      "name": "Scene",
      "nodes": [
        0
      ]
    }
  ],
  "textures": [
    {
      "sampler": 0,
      "source": 0
    },
    {
      "sampler": 0,
      "source": 1
    },
    {
      "sampler": 0,
      "source": 2
    },
    {
      "sampler": 0,
      "source": 3
    }
  ]
}