<svg xmlns="http://www.w3.org/2000/svg" version="1.1" xmlns:xlink="http://www.w3.org/1999/xlink" xmlns:svgjs="http://svgjs.dev/svgjs" width="306" height="308" viewBox="0 0 1500 1500"><rect width="306" height="308" fill="#121212"></rect><g transform="matrix(0.6666666666666666,0,0,0.6666666666666666,249.85778443113782,249.85778443113765)"><svg viewBox="0 0 334 334" data-background-color="#121212" preserveAspectRatio="xMidYMid meet" height="1500" width="1500" xmlns="http://www.w3.org/2000/svg" xmlns:xlink="http://www.w3.org/1999/xlink"><g id="tight-bounds" transform="matrix(1,0,0,1,0.04749999999998522,0.04750000000001364)"><svg viewBox="0 0 333.90454557049503 333.90454557049503" height="333.90454557049503" width="333.90454557049503"><rect width="333.905" height="333.905" fill="url(#50692773-d297-46d2-a1c1-70921572c595)" mask="url(#db8ad179-500c-4847-9025-0f4f607a5c4f)" data-fill-palette-color="tertiary"></rect><g><svg></svg></g><g><svg viewBox="0 0 333.90454557049503 333.90454557049503" height="333.90454557049503" width="333.90454557049503"><g><path d="M0 166.952c0-92.205 74.747-166.952 166.952-166.952 92.205 0 166.952 74.747 166.953 166.952 0 92.205-74.747 166.952-166.953 166.953-92.205 0-166.952-74.747-166.952-166.953zM166.952 316.63c82.665 0 149.677-67.013 149.678-149.678 0-82.665-67.013-149.677-149.678-149.677-82.665 0-149.677 67.013-149.677 149.677 0 82.665 67.013 149.677 149.677 149.678z" data-fill-palette-color="tertiary" fill="url(#50692773-d297-46d2-a1c1-70921572c595)" stroke="transparent"></path><ellipse rx="160.27418187383762" ry="160.27418187383762" cx="166.95227278524752" cy="166.95227278524752" fill="url(#50692773-d297-46d2-a1c1-70921572c595)" stroke="transparent" stroke-width="0" fill-opacity="1" data-fill-palette-color="tertiary"></ellipse></g><g transform="matrix(1,0,0,1,86.02092261613201,71.17305217166896)"><svg viewBox="0 0 161.862700338231 191.55844122715712" height="191.55844122715712" width="161.862700338231"><g><svg viewBox="0 0 161.862700338231 191.55844122715712" height="191.55844122715712" width="161.862700338231"><g><svg viewBox="0 0 161.862700338231 191.55844122715712" height="191.55844122715712" width="161.862700338231"><g id="textblocktransform"><svg viewBox="0 0 161.862700338231 191.55844122715712" height="191.55844122715712" width="161.862700338231" id="textblock"><g><svg viewBox="0 0 161.862700338231 191.55844122715712" height="191.55844122715712" width="161.862700338231"><g transform="matrix(1,0,0,1,0,0)"><svg width="161.862700338231" viewBox="0.81 -33.54 28.34 33.54" height="191.55844122715712" data-palette-color="#ffffff"><path d="M29.15-33.54L29.15-25.56 26.2-25.56 25.49-30.25Q25.32-31.1 24.66-31.1L24.66-31.1 17.5-31.1 17.5-3.44Q17.5-3.08 17.76-2.73 18.02-2.39 18.55-2.34L18.55-2.34 21.75-2.15 21.75 0 8.2 0 8.2-2.15 11.4-2.34Q11.94-2.39 12.19-2.73 12.45-3.08 12.45-3.44L12.45-3.44 12.45-31.1 5.25-31.1Q4.52-31.1 4.39-30.25L4.39-30.25 3.71-25.56 0.81-25.56 0.81-33.54 29.15-33.54Z" opacity="1" transform="matrix(1,0,0,1,0,0)" fill="#ffffff" class="wordmark-text-0" data-fill-palette-color="quaternary" id="text-0"></path></svg></g></svg></g></svg></g></svg></g></svg></g></svg></g></svg></g><defs></defs><mask id="db8ad179-500c-4847-9025-0f4f607a5c4f"><g id="SvgjsG2685"><svg viewBox="0 0 333.90454557049503 333.90454557049503" height="333.90454557049503" width="333.90454557049503"><g><svg></svg></g><g><svg viewBox="0 0 333.90454557049503 333.90454557049503" height="333.90454557049503" width="333.90454557049503"><g><path d="M0 166.952c0-92.205 74.747-166.952 166.952-166.952 92.205 0 166.952 74.747 166.953 166.952 0 92.205-74.747 166.952-166.953 166.953-92.205 0-166.952-74.747-166.952-166.953zM166.952 316.63c82.665 0 149.677-67.013 149.678-149.678 0-82.665-67.013-149.677-149.678-149.677-82.665 0-149.677 67.013-149.677 149.677 0 82.665 67.013 149.677 149.677 149.678z" fill="white" stroke="transparent"></path><ellipse rx="160.27418187383762" ry="160.27418187383762" cx="166.95227278524752" cy="166.95227278524752" fill="white" stroke="transparent" stroke-width="0" fill-opacity="1"></ellipse></g><g transform="matrix(1,0,0,1,86.02092261613201,71.17305217166896)"><svg viewBox="0 0 161.862700338231 191.55844122715712" height="191.55844122715712" width="161.862700338231"><g><svg viewBox="0 0 161.862700338231 191.55844122715712" height="191.55844122715712" width="161.862700338231"><g><svg viewBox="0 0 161.862700338231 191.55844122715712" height="191.55844122715712" width="161.862700338231"><g id="SvgjsG2684"><svg viewBox="0 0 161.862700338231 191.55844122715712" height="191.55844122715712" width="161.862700338231" id="SvgjsSvg2683"><g><svg viewBox="0 0 161.862700338231 191.55844122715712" height="191.55844122715712" width="161.862700338231"><g transform="matrix(1,0,0,1,0,0)"><svg width="161.862700338231" viewBox="0.81 -33.54 28.34 33.54" height="191.55844122715712" data-palette-color="#ffffff"><path d="M29.15-33.54L29.15-25.56 26.2-25.56 25.49-30.25Q25.32-31.1 24.66-31.1L24.66-31.1 17.5-31.1 17.5-3.44Q17.5-3.08 17.76-2.73 18.02-2.39 18.55-2.34L18.55-2.34 21.75-2.15 21.75 0 8.2 0 8.2-2.15 11.4-2.34Q11.94-2.39 12.19-2.73 12.45-3.08 12.45-3.44L12.45-3.44 12.45-31.1 5.25-31.1Q4.52-31.1 4.39-30.25L4.39-30.25 3.71-25.56 0.81-25.56 0.81-33.54 29.15-33.54Z" opacity="1" transform="matrix(1,0,0,1,0,0)" fill="black" class="wordmark-text-0" id="SvgjsPath2682"></path></svg></g></svg></g></svg></g></svg></g></svg></g></svg></g></svg></g><defs><mask></mask></defs></svg><rect width="333.90454557049503" height="333.90454557049503" fill="black" stroke="none" visibility="hidden"></rect></g></mask><linearGradient x1="0" x2="1" y1="0.5" y2="0.5" id="50692773-d297-46d2-a1c1-70921572c595"><stop stop-color="#ffa62e" offset="0"></stop><stop stop-color="#f71b3d" offset="1"></stop></linearGradient></svg><rect width="333.90454557049503" height="333.90454557049503" fill="none" stroke="none" visibility="hidden"></rect></g></svg></g></svg>